HIERARCHY
ROOT mixamorig:Hips
{
	OFFSET 0.000000 201.639420 0.000000
	CHANNELS 6 Xposition Yposition Zposition Xrotation Yrotation Zrotation
	JOINT mixamorig:Spine
	{
		OFFSET 0.006200 19.524994 -2.481800
		CHANNELS 3 Xrotation Yrotation Zrotation
		JOINT mixamorig:Spine1
		{
			OFFSET -0.000900 22.835007 -2.825400
			CHANNELS 3 Xrotation Yrotation Zrotation
			JOINT mixamorig:Spine2
			{
				OFFSET -0.020600 26.552490 -3.193300
				CHANNELS 3 Xrotation Yrotation Zrotation
				JOINT mixamorig:Neck
				{
					OFFSET -0.060000 30.701813 1.352200
					CHANNELS 3 Xrotation Yrotation Zrotation
					JOINT mixamorig:Head
					{
						OFFSET -0.087200 22.547607 3.670900
						CHANNELS 3 Xrotation Yrotation Zrotation
						JOINT mixamorig:HeadTop_End
						{
							OFFSET -0.830600 40.355194 7.893500
							CHANNELS 3 Xrotation Yrotation Zrotation
							End Site
							{
								OFFSET 0.000000 30.592346 0.000000
							}
						}
						JOINT mixamorig:RightEye
						{
							OFFSET -6.302100 18.118591 16.197100
							CHANNELS 3 Xrotation Yrotation Zrotation
							End Site
							{
								OFFSET 0.000000 30.592346 0.000000
							}
						}
						JOINT mixamorig:LeftEye
						{
							OFFSET 6.741500 18.382690 16.401899
							CHANNELS 3 Xrotation Yrotation Zrotation
							End Site
							{
								OFFSET 0.000000 30.592346 0.000000
							}
						}
					}
				}
				JOINT mixamorig:LeftShoulder
				{
					OFFSET 11.924900 18.230499 1.425400
					CHANNELS 3 Xrotation Yrotation Zrotation
					JOINT mixamorig:LeftArm
					{
						OFFSET 25.435989 -0.697632 -5.229300
						CHANNELS 3 Xrotation Yrotation Zrotation
						JOINT mixamorig:LeftForeArm
						{
							OFFSET 54.684776 0.000000 0.000000
							CHANNELS 3 Xrotation Yrotation Zrotation
							JOINT mixamorig:LeftHand
							{
								OFFSET 55.098175 0.000000 0.000000
								CHANNELS 3 Xrotation Yrotation Zrotation
								JOINT mixamorig:LeftHandMiddle1
								{
									OFFSET 23.369751 0.000000 0.000000
									CHANNELS 3 Xrotation Yrotation Zrotation
									JOINT mixamorig:LeftHandMiddle2
									{
										OFFSET 6.378677 0.000000 0.000000
										CHANNELS 3 Xrotation Yrotation Zrotation
										JOINT mixamorig:LeftHandMiddle3
										{
											OFFSET 6.148331 0.000000 0.000000
											CHANNELS 3 Xrotation Yrotation Zrotation
											JOINT mixamorig:LeftHandMiddle4
											{
												OFFSET 6.582504 0.000000 0.000000
												CHANNELS 3 Xrotation Yrotation Zrotation
												End Site
												{
													OFFSET -1.168900 6.395691 1.028606
												}
											}
										}
									}
								}
								JOINT mixamorig:LeftHandThumb1
								{
									OFFSET 7.235672 -3.848206 5.434273
									CHANNELS 3 Xrotation Yrotation Zrotation
									JOINT mixamorig:LeftHandThumb2
									{
										OFFSET 6.568451 -3.792297 3.792300
										CHANNELS 3 Xrotation Yrotation Zrotation
										JOINT mixamorig:LeftHandThumb3
										{
											OFFSET 6.063080 -3.500519 3.500518
											CHANNELS 3 Xrotation Yrotation Zrotation
											JOINT mixamorig:LeftHandThumb4
											{
												OFFSET 4.793182 -2.767334 2.767349
												CHANNELS 3 Xrotation Yrotation Zrotation
												End Site
												{
													OFFSET 0.101639 6.054260 1.275483
												}
											}
										}
									}
								}
								JOINT mixamorig:LeftHandIndex1
								{
									OFFSET 23.101074 -0.309540 4.992809
									CHANNELS 3 Xrotation Yrotation Zrotation
									JOINT mixamorig:LeftHandIndex2
									{
										OFFSET 6.226883 0.000000 0.000000
										CHANNELS 3 Xrotation Yrotation Zrotation
										JOINT mixamorig:LeftHandIndex3
										{
											OFFSET 6.094330 0.000000 0.000000
											CHANNELS 3 Xrotation Yrotation Zrotation
											JOINT mixamorig:LeftHandIndex4
											{
												OFFSET 5.482605 0.000000 0.000000
												CHANNELS 3 Xrotation Yrotation Zrotation
												End Site
												{
													OFFSET -1.427902 5.233032 0.797164
												}
											}
										}
									}
								}
								JOINT mixamorig:LeftHandRing1
								{
									OFFSET 22.299240 0.021149 -3.964172
									CHANNELS 3 Xrotation Yrotation Zrotation
									JOINT mixamorig:LeftHandRing2
									{
										OFFSET 6.321869 0.000000 0.000000
										CHANNELS 3 Xrotation Yrotation Zrotation
										JOINT mixamorig:LeftHandRing3
										{
											OFFSET 5.899796 0.000000 0.000000
											CHANNELS 3 Xrotation Yrotation Zrotation
											JOINT mixamorig:LeftHandRing4
											{
												OFFSET 6.517899 0.000000 0.000000
												CHANNELS 3 Xrotation Yrotation Zrotation
												End Site
												{
													OFFSET -1.637299 6.232208 0.980890
												}
											}
										}
									}
								}
								JOINT mixamorig:LeftHandPinky1
								{
									OFFSET 20.463791 -0.302338 -8.562233
									CHANNELS 3 Xrotation Yrotation Zrotation
									JOINT mixamorig:LeftHandPinky2
									{
										OFFSET 6.908646 0.000000 0.000000
										CHANNELS 3 Xrotation Yrotation Zrotation
										JOINT mixamorig:LeftHandPinky3
										{
											OFFSET 4.622849 0.000000 0.000000
											CHANNELS 3 Xrotation Yrotation Zrotation
											JOINT mixamorig:LeftHandPinky4
											{
												OFFSET 5.216080 0.000000 0.000000
												CHANNELS 3 Xrotation Yrotation Zrotation
												End Site
												{
													OFFSET -0.606308 5.116241 0.814926
												}
											}
										}
									}
								}
							}
						}
					}
				}
				JOINT mixamorig:RightShoulder
				{
					OFFSET -12.001300 18.284088 1.348900
					CHANNELS 3 Xrotation Yrotation Zrotation
					JOINT mixamorig:RightArm
					{
						OFFSET -25.308500 -0.751312 -5.164599
						CHANNELS 3 Xrotation Yrotation Zrotation
						JOINT mixamorig:RightForeArm
						{
							OFFSET -54.684429 0.000000 0.000000
							CHANNELS 3 Xrotation Yrotation Zrotation
							JOINT mixamorig:RightHand
							{
								OFFSET -55.150291 0.000000 0.000000
								CHANNELS 3 Xrotation Yrotation Zrotation
								JOINT mixamorig:RightHandMiddle1
								{
									OFFSET -23.317566 0.000000 0.000000
									CHANNELS 3 Xrotation Yrotation Zrotation
									JOINT mixamorig:RightHandMiddle2
									{
										OFFSET -6.378403 0.000000 0.000000
										CHANNELS 3 Xrotation Yrotation Zrotation
										JOINT mixamorig:RightHandMiddle3
										{
											OFFSET -6.148193 0.000000 0.000000
											CHANNELS 3 Xrotation Yrotation Zrotation
											JOINT mixamorig:RightHandMiddle4
											{
												OFFSET -6.583389 0.000000 0.000000
												CHANNELS 3 Xrotation Yrotation Zrotation
												End Site
												{
													OFFSET 1.171692 6.395905 1.029786
												}
											}
										}
									}
								}
								JOINT mixamorig:RightHandThumb1
								{
									OFFSET -7.190521 -3.860474 5.435846
									CHANNELS 3 Xrotation Yrotation Zrotation
									JOINT mixamorig:RightHandThumb2
									{
										OFFSET -6.567429 -3.791718 3.791708
										CHANNELS 3 Xrotation Yrotation Zrotation
										JOINT mixamorig:RightHandThumb3
										{
											OFFSET -6.062469 -3.500153 3.500166
											CHANNELS 3 Xrotation Yrotation Zrotation
											JOINT mixamorig:RightHandThumb4
											{
												OFFSET -4.792618 -2.767029 2.767022
												CHANNELS 3 Xrotation Yrotation Zrotation
												End Site
												{
													OFFSET -0.100327 6.053253 1.276754
												}
											}
										}
									}
								}
								JOINT mixamorig:RightHandIndex1
								{
									OFFSET -23.048981 -0.310791 4.992554
									CHANNELS 3 Xrotation Yrotation Zrotation
									JOINT mixamorig:RightHandIndex2
									{
										OFFSET -6.227539 0.000000 0.000000
										CHANNELS 3 Xrotation Yrotation Zrotation
										JOINT mixamorig:RightHandIndex3
										{
											OFFSET -6.095047 0.000000 0.000000
											CHANNELS 3 Xrotation Yrotation Zrotation
											JOINT mixamorig:RightHandIndex4
											{
												OFFSET -5.484772 0.000000 0.000000
												CHANNELS 3 Xrotation Yrotation Zrotation
												End Site
												{
													OFFSET 1.420593 5.237305 0.797056
												}
											}
										}
									}
								}
								JOINT mixamorig:RightHandRing1
								{
									OFFSET -22.246323 0.020569 -3.963762
									CHANNELS 3 Xrotation Yrotation Zrotation
									JOINT mixamorig:RightHandRing2
									{
										OFFSET -6.322128 0.000000 0.000000
										CHANNELS 3 Xrotation Yrotation Zrotation
										JOINT mixamorig:RightHandRing3
										{
											OFFSET -5.900024 0.000000 0.000000
											CHANNELS 3 Xrotation Yrotation Zrotation
											JOINT mixamorig:RightHandRing4
											{
												OFFSET -6.518356 0.000000 0.000000
												CHANNELS 3 Xrotation Yrotation Zrotation
												End Site
												{
													OFFSET 1.636398 6.232697 0.982186
												}
											}
										}
									}
								}
								JOINT mixamorig:RightHandPinky1
								{
									OFFSET -20.411011 -0.303314 -8.561701
									CHANNELS 3 Xrotation Yrotation Zrotation
									JOINT mixamorig:RightHandPinky2
									{
										OFFSET -6.907349 0.000000 0.000000
										CHANNELS 3 Xrotation Yrotation Zrotation
										JOINT mixamorig:RightHandPinky3
										{
											OFFSET -4.623840 0.000000 0.000000
											CHANNELS 3 Xrotation Yrotation Zrotation
											JOINT mixamorig:RightHandPinky4
											{
												OFFSET -5.218353 0.000000 0.000000
												CHANNELS 3 Xrotation Yrotation Zrotation
												End Site
												{
													OFFSET 0.602097 5.118835 0.816273
												}
											}
										}
									}
								}
							}
						}
					}
				}
			}
		}
	}
	JOINT mixamorig:LeftUpLeg
	{
		OFFSET 18.168400 -13.561905 -0.039000
		CHANNELS 3 Xrotation Yrotation Zrotation
		JOINT mixamorig:LeftLeg
		{
			OFFSET 0.577358 -80.825211 -3.695000
			CHANNELS 3 Xrotation Yrotation Zrotation
			JOINT mixamorig:LeftFoot
			{
				OFFSET -0.577356 -83.370262 -6.520700
				CHANNELS 3 Xrotation Yrotation Zrotation
				JOINT mixamorig:LeftToeBase
				{
					OFFSET 0.750401 -20.798306 25.135401
					CHANNELS 3 Xrotation Yrotation Zrotation
					JOINT mixamorig:LeftToe_End
					{
						OFFSET -0.000500 0.001200 19.917799
						CHANNELS 3 Xrotation Yrotation Zrotation
						End Site
						{
							OFFSET 0.000000 19.917805 0.000000
						}
					}
				}
			}
		}
	}
	JOINT mixamorig:RightUpLeg
	{
		OFFSET -18.162500 -13.585098 -0.041000
		CHANNELS 3 Xrotation Yrotation Zrotation
		JOINT mixamorig:RightLeg
		{
			OFFSET -0.595024 -80.945297 -3.631900
			CHANNELS 3 Xrotation Yrotation Zrotation
			JOINT mixamorig:RightFoot
			{
				OFFSET 0.595024 -83.218193 -6.561200
				CHANNELS 3 Xrotation Yrotation Zrotation
				JOINT mixamorig:RightToeBase
				{
					OFFSET -0.753601 -20.807106 25.115000
					CHANNELS 3 Xrotation Yrotation Zrotation
					JOINT mixamorig:RightToe_End
					{
						OFFSET 0.000299 0.001700 19.918200
						CHANNELS 3 Xrotation Yrotation Zrotation
						End Site
						{
							OFFSET 0.000000 19.918203 0.000000
						}
					}
				}
			}
		}
	}
}
MOTION
Frames: 4
Frame Time: 0.033333
-4.072487 217.110779 0.684495 -1.650506 3.359180 -17.301661 -0.711283 -0.431241 -0.340091 -1.407764 -1.246586 -3.744945 -1.398325 -1.254581 -3.485381 -3.381386 -4.700225 -5.499416 -24.040787 -27.261160 -9.506919 -0.000000 0.000002 0.000001 -0.000000 0.000002 0.000001 -0.000000 0.000002 0.000001 1.971711 -4.867503 -8.498732 -10.227091 9.778194 -38.581433 -0.000021 -57.533081 -0.000004 25.422850 -16.462510 6.153203 0.336746 2.130895 -17.958152 0.032551 0.670174 -5.562401 0.008103 0.334533 -2.773106 0.000002 0.000002 -0.000003 -9.270933 -16.192191 18.228390 7.611413 15.456660 -3.771414 1.166853 5.392136 0.593967 0.000002 -0.000001 -0.000001 0.337338 2.132732 -17.974140 0.032361 0.668250 -5.546430 0.008096 0.334540 -2.773108 -0.000001 -0.000001 -0.000001 0.337349 2.132735 -17.974131 0.032356 0.668260 -5.546432 0.008101 0.334530 -2.773107 0.000000 0.000000 -0.000000 1.577104 5.993900 -17.551633 0.020302 -3.386294 -6.054795 0.008102 0.334514 -2.773114 0.000002 -0.000000 0.000002 -0.846626 -1.702509 -22.689777 -67.197204 48.080068 27.635861 -0.000014 29.686147 0.000010 11.560657 -7.881420 -5.184306 0.226447 -1.763504 14.633617 0.215910 -1.722591 14.286951 0.054164 -0.868020 7.141858 -0.000001 0.000001 -0.000000 -38.337705 -0.305052 -3.312099 4.645042 -8.656798 -0.231331 -1.269823 0.126084 -2.098662 -0.000001 -0.000001 -0.000001 0.226451 -1.763495 14.633602 0.215901 -1.722595 14.286973 0.054181 -0.868026 7.141840 0.000001 0.000001 -0.000000 0.226458 -1.763495 14.633602 0.215895 -1.722600 14.286965 0.054166 -0.868032 7.141846 -0.000004 0.000000 0.000001 0.226453 -1.763492 14.633615 0.215915 -1.722605 14.286951 0.054158 -0.868024 7.141855 -0.000002 -0.000001 -0.000002 -12.840667 12.684942 21.476965 15.223983 -2.763479 0.047966 30.744686 2.658388 -18.465031 -31.680012 -2.283247 11.914129 -0.000001 -0.000002 0.000000 -45.229591 -1.381358 -2.040371 66.963250 -2.956546 -0.311468 36.639331 0.843050 6.997929 0.000000 -0.000001 -0.000001 0.000000 -0.000001 0.000000 
-3.693699 216.180527 1.911199 -3.446583 -4.071831 -18.011820 -1.085518 -0.783811 -0.067291 -2.037699 -1.711620 -3.056550 -2.021718 -1.734570 -2.870776 -3.643030 -4.821534 -5.358092 -23.969813 -27.856677 -9.172718 0.000002 0.000002 0.000001 0.000002 0.000002 0.000001 0.000002 0.000002 0.000001 1.712199 -3.803245 -6.949366 -9.830719 13.345306 -40.000907 0.000022 -52.441708 0.000020 30.735534 -12.292571 12.932151 0.336744 2.130897 -17.958147 0.032548 0.670176 -5.562399 0.008099 0.334529 -2.773107 0.000004 0.000001 -0.000000 -9.270947 -16.192227 18.228364 7.611410 15.456662 -3.771415 1.166853 5.392132 0.593963 0.000002 0.000001 0.000001 0.337341 2.132730 -17.974141 0.032364 0.668251 -5.546429 0.008095 0.334540 -2.773105 -0.000000 -0.000001 0.000000 0.337351 2.132733 -17.974133 0.032350 0.668262 -5.546436 0.008103 0.334530 -2.773108 0.000000 -0.000001 -0.000000 1.577100 5.993905 -17.551631 0.020296 -3.386295 -6.054795 0.008101 0.334515 -2.773118 -0.000003 -0.000000 0.000002 -0.672777 -1.236976 -21.888152 -59.263502 38.045325 17.688175 -0.000005 27.042660 0.000008 7.352962 -9.904583 -10.854790 0.226452 -1.763507 14.633617 0.215907 -1.722592 14.286951 0.054176 -0.868025 7.141848 0.000005 0.000001 -0.000001 -38.337705 -0.305049 -3.312100 4.645043 -8.656798 -0.231331 -1.269825 0.126083 -2.098661 0.000000 -0.000001 0.000000 0.226453 -1.763491 14.633602 0.215905 -1.722596 14.286970 0.054178 -0.868024 7.141835 0.000000 -0.000002 0.000002 0.226459 -1.763492 14.633600 0.215895 -1.722599 14.286965 0.054174 -0.868029 7.141848 0.000001 0.000001 0.000002 0.226453 -1.763491 14.633610 0.215908 -1.722605 14.286951 0.054166 -0.868021 7.141862 0.000001 -0.000001 -0.000004 -12.013074 14.307641 20.657588 16.882909 0.090111 0.212988 28.357955 4.846120 -13.288135 -32.303728 -1.425523 8.203259 -0.000000 0.000003 -0.000000 -43.691077 -0.227029 -2.904726 68.643176 -4.771111 -0.379565 38.037549 -0.358441 3.000199 0.000001 0.000008 0.000004 -0.000000 -0.000002 -0.000001 
-3.571293 215.619598 3.329741 -5.022272 -10.939210 -18.726804 -1.453860 -1.066164 0.033287 -2.657020 -2.067287 -2.424924 -2.636284 -2.102386 -2.315023 -3.952321 -4.892366 -5.241577 -23.543633 -28.272760 -8.798838 0.000001 0.000002 -0.000000 0.000001 0.000002 -0.000000 0.000001 0.000002 -0.000000 1.399342 -2.644378 -5.356227 -9.380284 16.783279 -41.661920 -0.000014 -46.923611 -0.000016 33.922845 -10.652308 19.904937 0.336747 2.130898 -17.958149 0.032550 0.670175 -5.562405 0.008107 0.334535 -2.773107 -0.000000 -0.000001 0.000001 -9.270921 -16.192184 18.228387 7.611415 15.456660 -3.771414 1.166850 5.392132 0.593966 -0.000003 -0.000002 -0.000000 0.337344 2.132733 -17.974145 0.032357 0.668250 -5.546425 0.008102 0.334541 -2.773105 -0.000001 -0.000003 0.000003 0.337355 2.132734 -17.974135 0.032351 0.668261 -5.546433 0.008101 0.334528 -2.773109 -0.000002 -0.000001 0.000002 1.577104 5.993902 -17.551634 0.020308 -3.386296 -6.054796 0.008102 0.334516 -2.773115 -0.000001 0.000001 -0.000001 -0.540708 -0.886210 -20.851335 -54.896109 27.208740 11.567958 0.000004 25.297632 -0.000002 3.278749 -11.462304 -16.428570 0.226447 -1.763507 14.633615 0.215906 -1.722594 14.286953 0.054174 -0.868019 7.141856 -0.000002 0.000002 0.000000 -38.337712 -0.305049 -3.312101 4.645043 -8.656799 -0.231328 -1.269824 0.126085 -2.098660 0.000003 0.000001 -0.000000 0.226450 -1.763492 14.633602 0.215900 -1.722593 14.286973 0.054172 -0.868022 7.141840 -0.000000 -0.000001 0.000001 0.226453 -1.763493 14.633600 0.215898 -1.722601 14.286965 0.054171 -0.868033 7.141854 -0.000000 -0.000003 0.000003 0.226453 -1.763494 14.633612 0.215909 -1.722605 14.286955 0.054166 -0.868019 7.141861 0.000004 -0.000002 0.000000 -10.788306 15.994222 19.809261 16.844628 3.552746 0.415404 28.227958 6.006097 -9.830937 -33.943103 -1.054733 5.467510 -0.000000 0.000001 -0.000000 -41.015436 0.606035 -3.765577 68.485555 -6.461198 -0.437201 38.870531 -1.444082 -0.680065 0.000012 0.000007 -0.000004 0.000001 -0.000000 -0.000001 
-3.781776 215.343155 4.928133 -6.069570 -17.075630 -18.891473 -1.834156 -1.215627 -0.193349 -3.310005 -2.290942 -1.955792 -3.289481 -2.330492 -1.905565 -4.346964 -4.865542 -5.130535 -23.000997 -28.180228 -8.585518 -0.000003 0.000003 0.000003 -0.000003 0.000003 0.000003 -0.000003 0.000003 0.000003 1.052494 -1.359743 -3.853977 -8.632718 20.257957 -43.302474 0.000012 -41.379847 0.000001 36.081943 -11.339917 26.920200 0.336739 2.130897 -17.958149 0.032554 0.670173 -5.562402 0.008104 0.334534 -2.773103 -0.000002 -0.000001 0.000000 -9.270931 -16.192200 18.228387 7.611407 15.456658 -3.771414 1.166856 5.392138 0.593968 -0.000001 0.000001 0.000001 0.337340 2.132731 -17.974143 0.032361 0.668252 -5.546427 0.008102 0.334540 -2.773104 -0.000001 -0.000002 0.000001 0.337350 2.132737 -17.974131 0.032350 0.668264 -5.546433 0.008099 0.334530 -2.773106 0.000003 0.000001 -0.000002 1.577099 5.993904 -17.551636 0.020306 -3.386298 -6.054792 0.008108 0.334517 -2.773118 0.000000 0.000002 -0.000000 -0.474386 -0.747197 -19.720590 -51.801825 15.677007 8.245770 0.000004 24.107487 -0.000003 -0.206621 -12.736514 -21.429551 0.226449 -1.763506 14.633615 0.215904 -1.722593 14.286954 0.054174 -0.868021 7.141855 -0.000001 0.000000 -0.000002 -38.337705 -0.305051 -3.312099 4.645044 -8.656798 -0.231331 -1.269828 0.126081 -2.098664 0.000002 -0.000000 0.000001 0.226452 -1.763492 14.633605 0.215903 -1.722594 14.286966 0.054177 -0.868025 7.141843 0.000001 0.000000 -0.000005 0.226461 -1.763495 14.633598 0.215894 -1.722601 14.286966 0.054173 -0.868030 7.141845 0.000000 -0.000001 0.000002 0.226452 -1.763496 14.633610 0.215910 -1.722604 14.286954 0.054169 -0.868020 7.141863 0.000003 0.000002 -0.000001 -9.444939 17.396396 18.767610 15.822188 6.656614 0.592894 29.708700 6.325263 -7.709264 -36.437393 -0.750156 3.298286 0.000000 0.000001 0.000000 -36.984860 0.768415 -4.623418 66.356756 -7.506165 -0.466747 38.814968 -2.220203 -3.569506 -0.000015 0.000001 0.000006 0.000001 0.000001 -0.000001 
